<svg id="Livello_1" data-name="Livello 1" xmlns="http://www.w3.org/2000/svg" viewBox="0 0 2048 2048">
  <defs>
    <style>
      .cls-1 {
        fill: #7d170f;
      }

      .cls-2 {
        fill: #f5f5f5;
      }
    </style>
  </defs>
  <circle class="cls-1" cx="1024" cy="1024" r="1024"/>
  <path class="cls-2" d="M1026.34,314.42c-345.76,0-626.06,280.3-626.06,626.07,0,278.14,181.38,513.92,432.32,595.49l42.81-91c-217.23-64.86-375.58-266.2-375.58-504.54C499.83,649.7,735.55,414,1026.34,414s526.52,235.73,526.52,526.52c0,238.45-158.49,439.85-375.9,504.63l42.81,91c251.11-81.49,432.64-317.36,432.64-595.61C1652.41,594.72,1372.11,314.42,1026.34,314.42Z" transform="translate(-2.34)"/>
  <path class="cls-2" d="M1532.45,1598.4a768.22,768.22,0,0,1-89.61,68.32l-416.5-884-417.49,886.2A770,770,0,0,1,519,1601.13L1026.34,502.85Z" transform="translate(-2.34)"/>
</svg>
